<svg xmlns="http://www.w3.org/2000/svg" viewBox="0 0 32 32" fill="none">
  <rect width="32" height="32" rx="7" fill="#0e0a1a"/>
  <rect x="1" y="1" width="30" height="30" rx="6.5" stroke="url(#border)" stroke-width="0.8" fill="none"/>
  <defs>
    <linearGradient id="border" x1="0" y1="0" x2="32" y2="32" gradientUnits="userSpaceOnUse">
      <stop offset="0%" stop-color="#a855f7" stop-opacity="0.6"/>
      <stop offset="100%" stop-color="#7c3aed" stop-opacity="0.2"/>
    </linearGradient>
    <linearGradient id="dot1" x1="0%" y1="0%" x2="100%" y2="100%">
      <stop offset="0%" stop-color="#c084fc"/>
      <stop offset="100%" stop-color="#a855f7"/>
    </linearGradient>
    <linearGradient id="dot2" x1="0%" y1="0%" x2="100%" y2="100%">
      <stop offset="0%" stop-color="#e879f9"/>
      <stop offset="100%" stop-color="#a855f7"/>
    </linearGradient>
    <linearGradient id="bracket" x1="0%" y1="0%" x2="0%" y2="100%">
      <stop offset="0%" stop-color="#a855f7"/>
      <stop offset="100%" stop-color="#7c3aed"/>
    </linearGradient>
  </defs>
  <!-- Left brace { -->
  <path d="M11 8 C9 8 8 9 8 11 L8 14 C8 15.5 7 16 6 16 C7 16 8 16.5 8 18 L8 21 C8 23 9 24 11 24" stroke="url(#bracket)" stroke-width="2" stroke-linecap="round" stroke-linejoin="round" fill="none"/>
  <!-- Right brace } -->
  <path d="M21 8 C23 8 24 9 24 11 L24 14 C24 15.5 25 16 26 16 C25 16 24 16.5 24 18 L24 21 C24 23 23 24 21 24" stroke="url(#bracket)" stroke-width="2" stroke-linecap="round" stroke-linejoin="round" fill="none"/>
  <!-- Dot accent -->
  <circle cx="16" cy="16" r="2.5" fill="url(#dot1)"/>
  <circle cx="16" cy="16" r="1" fill="#f0abfc"/>
</svg>
